<svg xmlns="http://www.w3.org/2000/svg" width="400" height="300" viewBox="0 0 400 300">
  <rect width="400" height="300" fill="#FFF8E1"/>
  <!-- Grid of cookies -->
  <!-- Row 1 -->
  <rect x="70" y="60" width="70" height="70" rx="12" fill="#FFCC80"/>
  <rect x="73" y="63" width="64" height="64" rx="9" fill="none" stroke="#F48FB1" stroke-width="2.5"/>
  <circle cx="105" cy="95" r="12" fill="#F48FB1" opacity="0.7"/>
  <text x="105" y="100" font-family="Georgia" font-size="14" fill="#FFFAFC" text-anchor="middle">♥</text>
  <rect x="165" y="60" width="70" height="70" rx="35" fill="#FFCC80"/>
  <circle cx="200" cy="95" r="32" fill="none" stroke="#C8A951" stroke-width="2.5"/>
  <text x="200" y="100" font-family="Georgia" font-size="18" fill="#C8A951" text-anchor="middle">★</text>
  <polygon points="260,60 295,60 330,95 295,130 260,130 225,95" fill="#FFCC80"/>
  <polygon points="265,65 290,65 320,95 290,125 265,125 235,95" fill="none" stroke="#F48FB1" stroke-width="2"/>
  <text x="277" y="100" font-family="sans-serif" font-size="12" fill="#F48FB1" text-anchor="middle">✿</text>
  <!-- Row 2 -->
  <ellipse cx="105" cy="205" rx="38" ry="30" fill="#FFCC80"/>
  <ellipse cx="105" cy="205" rx="33" ry="25" fill="none" stroke="#C8A951" stroke-width="2"/>
  <circle cx="105" cy="205" r="8" fill="#C8A951" opacity="0.5"/>
  <rect x="162" y="172" width="76" height="70" rx="8" fill="#FFCC80"/>
  <rect x="165" y="175" width="70" height="64" rx="5" fill="none" stroke="#F48FB1" stroke-width="2"/>
  <text x="200" y="212" font-family="Georgia" font-size="22" fill="#F48FB1" text-anchor="middle">🌸</text>
  <polygon points="295,172 330,172 330,242 295,242 260,242 260,172" fill="#FFCC80"/>
  <text x="295" y="218" font-family="sans-serif" font-size="22" fill="#C8A951" text-anchor="middle">⭐</text>
  <text x="200" y="272" font-family="Georgia, serif" font-size="15" fill="#5D3A3A" text-anchor="middle" font-style="italic">Biscotti Decorati</text>
  <text x="200" y="290" font-family="sans-serif" font-size="11" fill="#9E6B6B" text-anchor="middle">Foto in arrivo ✦</text>
</svg>
