<svg xmlns="http://www.w3.org/2000/svg" width="400" height="300" viewBox="0 0 400 300">
  <rect width="400" height="300" fill="#FCE4EC"/>
  <!-- Heart cookies -->
  <path d="M130,105 C130,90 115,80 110,95 C100,80 85,90 85,105 C85,120 107,140 130,155 C153,140 175,120 175,105 C175,90 160,80 150,95 C145,80 130,90 130,105 Z" fill="#F48FB1"/>
  <path d="M134,105 C134,92 120,82 116,96 C106,82 92,92 92,105 C92,118 112,137 134,150 C156,137 176,118 176,105" fill="none" stroke="#FFFAFC" stroke-width="2"/>
  <!-- Second heart - white glazed -->
  <path d="M270,105 C270,90 255,80 250,95 C240,80 225,90 225,105 C225,120 247,140 270,155 C293,140 315,120 315,105 C315,90 300,80 290,95 C285,80 270,90 270,105 Z" fill="#FFFAFC" stroke="#F48FB1" stroke-width="3"/>
  <circle cx="255" cy="105" r="5" fill="#F48FB1"/>
  <circle cx="270" cy="100" r="4" fill="#C8A951"/>
  <circle cx="285" cy="108" r="4" fill="#F48FB1"/>
  <!-- Sprinkles on pink heart -->
  <line x1="115" y1="118" x2="120" y2="128" stroke="#FFFAFC" stroke-width="2.5" stroke-linecap="round"/>
  <line x1="130" y1="125" x2="135" y2="135" stroke="#FFFAFC" stroke-width="2.5" stroke-linecap="round"/>
  <line x1="145" y1="118" x2="140" y2="128" stroke="#FFFAFC" stroke-width="2.5" stroke-linecap="round"/>
  <text x="200" y="205" font-family="Georgia, serif" font-size="15" fill="#5D3A3A" text-anchor="middle" font-style="italic">Biscotti San Valentino</text>
  <text x="200" y="225" font-family="sans-serif" font-size="11" fill="#9E6B6B" text-anchor="middle">Foto in arrivo ✦</text>
</svg>
