<svg xmlns="http://www.w3.org/2000/svg" width="400" height="300" viewBox="0 0 400 300">
  <rect width="400" height="300" fill="#EFEBE9"/>
  <!-- Truffles scattered -->
  <circle cx="130" cy="130" r="38" fill="#4E342E"/>
  <circle cx="130" cy="130" r="32" fill="#6D4C41"/>
  <path d="M112,118 Q130,110 148,118 Q145,130 130,135 Q115,130 112,118 Z" fill="#8D6E63" opacity="0.6"/>
  <text x="130" y="175" font-family="Georgia, serif" font-size="10" fill="#5D3A3A" text-anchor="middle">Rum</text>
  <circle cx="220" cy="115" r="32" fill="#3E2723"/>
  <circle cx="220" cy="115" r="26" fill="#4E342E"/>
  <path d="M205,104 Q220,97 235,104 Q232,115 220,120 Q208,115 205,104 Z" fill="#6D4C41" opacity="0.6"/>
  <text x="220" y="158" font-family="Georgia, serif" font-size="10" fill="#5D3A3A" text-anchor="middle">Fondente</text>
  <circle cx="295" cy="150" r="28" fill="#5D4037"/>
  <circle cx="295" cy="150" r="22" fill="#795548"/>
  <path d="M283,141 Q295,135 307,141 Q305,150 295,154 Q285,150 283,141 Z" fill="#8D6E63" opacity="0.5"/>
  <text x="295" y="190" font-family="Georgia, serif" font-size="10" fill="#5D3A3A" text-anchor="middle">Nocciola</text>
  <!-- Cocoa powder dusting -->
  <ellipse cx="130" cy="167" rx="38" ry="7" fill="#4E342E" opacity="0.2"/>
  <ellipse cx="220" cy="146" rx="32" ry="6" fill="#4E342E" opacity="0.2"/>
  <ellipse cx="295" cy="177" rx="28" ry="6" fill="#4E342E" opacity="0.2"/>
  <text x="200" y="220" font-family="Georgia, serif" font-size="15" fill="#5D3A3A" text-anchor="middle" font-style="italic">Tartufi al Rum</text>
  <text x="200" y="240" font-family="sans-serif" font-size="11" fill="#9E6B6B" text-anchor="middle">Foto in arrivo ✦</text>
</svg>
