<svg xmlns="http://www.w3.org/2000/svg" width="400" height="300" viewBox="0 0 400 300">
  <rect width="400" height="300" fill="#E8F5E9"/>
  <ellipse cx="200" cy="200" rx="100" ry="25" fill="#A5D6A7"/>
  <rect x="100" y="140" width="200" height="63" rx="10" fill="#81C784"/>
  <ellipse cx="200" cy="140" rx="100" ry="25" fill="#66BB6A"/>
  <!-- Colorful dots / sprinkles -->
  <circle cx="140" cy="165" r="5" fill="#F48FB1"/>
  <circle cx="165" cy="155" r="4" fill="#C8A951"/>
  <circle cx="200" cy="160" r="5" fill="#FF8A65"/>
  <circle cx="235" cy="155" r="4" fill="#64B5F6"/>
  <circle cx="260" cy="168" r="5" fill="#F48FB1"/>
  <!-- Candles -->
  <rect x="175" y="110" width="8" height="30" fill="#FF8A65" rx="2"/>
  <rect x="195" y="105" width="8" height="35" fill="#64B5F6" rx="2"/>
  <rect x="215" y="110" width="8" height="30" fill="#F48FB1" rx="2"/>
  <circle cx="179" cy="108" r="5" fill="#FFD54F" opacity="0.9"/>
  <circle cx="199" cy="103" r="5" fill="#FFD54F" opacity="0.9"/>
  <circle cx="219" cy="108" r="5" fill="#FFD54F" opacity="0.9"/>
  <text x="200" y="248" font-family="Georgia, serif" font-size="15" fill="#5D3A3A" text-anchor="middle" font-style="italic">Torta Compleanno</text>
  <text x="200" y="268" font-family="sans-serif" font-size="11" fill="#9E6B6B" text-anchor="middle">Foto in arrivo ✦</text>
</svg>
